<?xml version="1.0" standalone="no"?>
<!DOCTYPE svg PUBLIC "-//W3C//DTD SVG 20010904//EN"
 "http://www.w3.org/TR/2001/REC-SVG-20010904/DTD/svg10.dtd">
<svg version="1.0" xmlns="http://www.w3.org/2000/svg"
 width="201.000000pt" height="176.000000pt" viewBox="0 0 201.000000 176.000000"
 preserveAspectRatio="xMidYMid meet">
<metadata>
Created by potrace 1.15, written by Peter Selinger 2001-2017
</metadata>
<g transform="translate(0.000000,176.000000) scale(0.100000,-0.100000)"
fill="#000000" stroke="none">
<path d="M705 1744 c-373 -57 -590 -235 -677 -554 -21 -78 -23 -105 -22 -315
0 -217 2 -236 27 -329 41 -152 87 -237 182 -332 91 -93 191 -149 330 -185 102
-27 387 -38 503 -19 408 65 713 340 857 773 68 205 94 415 95 763 l0 160 -207
17 c-490 41 -908 49 -1088 21z m-43 -461 c16 -14 18 -33 18 -150 l0 -133 43
22 c59 31 175 31 233 0 100 -52 149 -127 162 -249 l7 -71 105 147 c111 154
132 171 171 135 10 -9 19 -27 19 -40 0 -13 -68 -117 -163 -251 -158 -222 -164
-228 -197 -228 -53 0 -60 24 -60 205 0 136 -2 159 -20 187 -51 85 -171 102
-244 35 -49 -46 -56 -77 -56 -243 0 -165 -7 -189 -56 -189 -54 0 -54 -1 -54
420 0 340 2 391 16 404 20 21 53 20 76 -1z"/>
</g>
</svg>
