/**<?xml version="1.0" encoding="utf-8"?>
*<!-- Generator: Adobe Illustrator 18.1.1, SVG Export Plug-In . SVG Version: 6.00 Build 0)  -->
*<svg version="1.1" id="Layer_1" xmlns="http://www.w3.org/2000/svg" xmlns:xlink="http://www.w3.org/1999/xlink" x="0px" y="0px"
*	 viewBox="0 0 1000 1000" enable-background="new 0 0 1000 1000" xml:space="preserve">
*<g>
*	<g>
*		<polygon fill="#FFFFFF" points="332.6,124.5 332.6,240.7 303.5,240.7 303.5,124.5 143.7,124.5 143.7,473.3 303.5,473.3 303.5,357 
*			332.6,357 332.6,473.3 492.4,473.3 492.4,124.5 		"/>
*		<polygon fill="#FFFFFF" points="521.5,473.3 695.9,124.5 870.3,473.3 		"/>
*		<g>
*			<polygon fill="#FFFFFF" points="521.2,876.3 521.2,527.6 870,527.6 768.3,701.9 870,876.3 			"/>
*			<path fill="#FFFFFF" d="M419.5,701.9l68.2-107.4c-34.1-49.3-91-81.5-155.4-81.5c-104.3,0-188.9,84.6-188.9,188.9
*				c0,104.3,84.6,188.9,188.9,188.9c64.4,0,121.3-32.3,155.4-81.5L419.5,701.9z"/>
*		</g>
*	</g>
*	<path fill="#FFFFFF" d="M993,1000H6V0h987V1000z M45,967h908V33H45V967z"/>
*</g>
*</svg>
*/

<?xml version="1.0" standalone="no"?>
<!DOCTYPE svg PUBLIC "-//W3C//DTD SVG 20010904//EN"
 "http://www.w3.org/TR/2001/REC-SVG-20010904/DTD/svg10.dtd">
<svg version="1.0" xmlns="http://www.w3.org/2000/svg"
 width="1043.000000pt" height="1043.000000pt" viewBox="0 0 1043.000000 1043.000000"
 preserveAspectRatio="xMidYMid meet">
<metadata>
Created by potrace 1.15, written by Peter Selinger 2001-2017
</metadata>
<g transform="translate(0.000000,1043.000000) scale(0.100000,-0.100000)"
fill="#000000" stroke="none">
<path d="M4705 9662 c-54 -2 -92 -7 -96 -14 -5 -8 -46 -11 -125 -10 -79 1
-121 -2 -125 -10 -5 -7 -40 -11 -100 -10 -58 1 -96 -3 -100 -9 -4 -7 -36 -11
-77 -10 -41 0 -74 -4 -77 -10 -5 -7 -29 -8 -70 -4 -53 6 -63 5 -69 -10 -5 -14
-15 -15 -60 -10 -44 6 -54 4 -59 -9 -6 -14 -16 -16 -55 -10 -41 5 -50 3 -56
-11 -5 -14 -14 -15 -46 -10 -30 5 -44 3 -56 -9 -11 -12 -26 -14 -56 -9 -28 4
-39 3 -35 -4 9 -15 -18 -24 -52 -17 -20 4 -30 1 -34 -9 -4 -12 -15 -14 -41
-10 -22 3 -36 2 -36 -5 0 -5 -16 -10 -36 -10 -20 0 -39 -4 -43 -10 -3 -5 -19
-10 -35 -10 -15 0 -32 -5 -36 -11 -4 -7 -17 -10 -32 -6 -19 5 -27 2 -32 -10
-5 -13 -14 -16 -35 -12 -21 4 -31 2 -35 -9 -4 -10 -13 -13 -29 -9 -17 5 -26 2
-30 -10 -5 -11 -14 -14 -30 -10 -16 4 -26 2 -30 -8 -3 -10 -14 -13 -31 -10
-15 3 -26 1 -26 -6 0 -6 -11 -11 -25 -11 -14 0 -25 -4 -25 -10 0 -5 -13 -10
-30 -10 -16 0 -30 -5 -30 -11 0 -6 -7 -9 -15 -5 -8 3 -21 -2 -30 -10 -9 -9
-23 -13 -35 -9 -14 5 -20 2 -20 -10 0 -12 -6 -14 -25 -9 -19 5 -25 3 -23 -7 2
-9 -5 -14 -19 -13 -13 0 -23 -5 -23 -13 0 -10 -7 -12 -20 -8 -11 4 -20 2 -20
-4 0 -6 -11 -11 -25 -11 -16 0 -25 -6 -25 -16 0 -10 -6 -13 -19 -9 -12 3 -21
0 -24 -10 -4 -8 -13 -12 -22 -9 -8 3 -15 1 -15 -5 0 -6 -9 -11 -20 -11 -11 0
-20 -4 -20 -10 0 -5 -7 -7 -15 -4 -8 4 -17 -1 -21 -9 -3 -9 -13 -13 -25 -10
-13 4 -19 1 -17 -8 2 -8 -4 -13 -13 -11 -9 1 -19 -4 -22 -13 -4 -8 -13 -12
-22 -9 -9 4 -15 0 -15 -10 0 -9 -6 -13 -14 -10 -7 3 -16 -2 -19 -10 -4 -9 -13
-13 -22 -10 -10 4 -15 0 -15 -11 0 -12 -6 -16 -20 -12 -13 3 -25 -2 -34 -15
-8 -11 -19 -17 -25 -13 -6 3 -11 0 -11 -8 0 -8 -7 -17 -15 -21 -8 -3 -15 -1
-15 4 0 19 -17 10 -28 -15 -8 -17 -16 -23 -28 -18 -12 4 -15 3 -10 -5 4 -7 -4
-17 -21 -24 -15 -7 -34 -21 -41 -30 -7 -10 -23 -18 -36 -18 -15 0 -27 -9 -35
-26 -8 -17 -17 -24 -27 -20 -10 4 -18 0 -21 -12 -5 -22 -63 -59 -63 -41 0 7
-9 2 -20 -11 -11 -13 -20 -29 -20 -35 0 -13 -25 -28 -46 -30 -17 -1 -44 -26
-44 -40 0 -6 -28 -36 -62 -66 -76 -66 -166 -156 -214 -215 -20 -24 -45 -44
-55 -44 -13 0 -19 -7 -19 -23 0 -12 -19 -43 -44 -70 -25 -26 -48 -56 -51 -67
-3 -10 -15 -22 -26 -25 -11 -4 -18 -9 -15 -12 7 -7 -25 -63 -36 -63 -4 0 -8
-6 -8 -13 0 -7 -8 -22 -17 -33 -10 -11 -26 -35 -37 -54 -10 -19 -24 -39 -30
-45 -6 -5 -20 -28 -31 -50 -11 -22 -26 -44 -33 -48 -7 -5 -10 -12 -7 -18 4 -5
0 -9 -7 -9 -8 0 -15 -11 -16 -24 -1 -14 -10 -40 -21 -59 -32 -58 -39 -70 -63
-124 -13 -29 -29 -53 -36 -53 -7 0 -12 -8 -11 -17 2 -21 -5 -43 -31 -98 -11
-22 -23 -55 -26 -73 -4 -19 -12 -36 -19 -39 -7 -2 -11 -13 -8 -24 3 -12 -1
-21 -11 -25 -11 -4 -14 -13 -11 -25 4 -10 3 -24 -2 -31 -4 -7 -15 -35 -24 -63
-10 -27 -22 -49 -28 -47 -8 1 -10 -9 -5 -33 4 -23 2 -35 -5 -35 -6 0 -10 -10
-10 -22 1 -34 -18 -102 -30 -106 -5 -2 -7 -10 -4 -18 8 -20 -6 -66 -18 -59 -6
4 -7 -3 -3 -18 7 -31 -4 -70 -18 -61 -7 4 -8 -7 -3 -34 4 -29 3 -43 -7 -49 -8
-5 -13 -27 -13 -53 0 -28 -4 -44 -11 -43 -8 1 -10 -13 -6 -44 4 -37 1 -49 -13
-59 -13 -9 -15 -17 -8 -26 11 -14 5 -98 -6 -98 -5 0 -7 -27 -7 -60 0 -34 -4
-64 -10 -68 -7 -4 -11 -39 -10 -85 0 -49 -4 -81 -11 -85 -8 -5 -11 -40 -8
-114 3 -76 1 -111 -8 -120 -16 -17 -18 -959 -2 -970 6 -4 9 -57 9 -125 -1 -77
2 -120 10 -125 7 -5 10 -38 10 -90 -1 -50 3 -86 9 -90 6 -3 11 -37 11 -75 -1
-37 3 -70 7 -73 11 -7 13 -69 4 -98 -6 -17 -4 -22 6 -20 11 2 14 -10 13 -52 0
-37 4 -59 14 -66 11 -8 13 -23 10 -52 -5 -31 -2 -42 9 -46 11 -5 14 -17 11
-46 -2 -27 1 -41 11 -45 9 -4 12 -15 8 -40 -3 -19 -1 -35 5 -37 5 -2 14 -21
18 -43 5 -22 14 -60 21 -85 6 -25 11 -53 11 -64 -1 -10 6 -29 15 -42 8 -13 13
-31 9 -39 -3 -8 -1 -15 5 -15 7 0 9 -12 7 -30 -3 -22 0 -30 10 -30 11 0 13 -8
9 -30 -5 -23 -3 -30 10 -30 12 0 14 -7 10 -30 -5 -21 -3 -29 6 -27 7 1 12 -8
11 -23 -1 -14 5 -29 12 -33 8 -4 14 -17 14 -27 0 -10 4 -21 9 -24 5 -3 12 -21
15 -39 3 -19 15 -52 26 -75 11 -23 20 -48 20 -57 0 -8 5 -15 10 -15 6 0 10 -5
10 -10 0 -6 16 -45 36 -88 53 -115 59 -127 64 -132 12 -12 60 -111 60 -125 0
-8 5 -15 10 -15 6 0 10 -7 10 -15 0 -8 4 -15 10 -15 5 0 21 -22 35 -49 13 -27
29 -52 35 -56 5 -3 10 -13 10 -21 0 -8 9 -23 20 -34 11 -11 20 -27 20 -35 0
-8 6 -15 14 -15 15 0 26 -21 26 -51 0 -10 6 -19 13 -19 19 0 47 -33 47 -54 0
-9 8 -20 18 -23 26 -10 51 -45 52 -70 0 -16 6 -23 19 -23 10 0 35 -20 55 -45
46 -56 223 -233 253 -252 13 -9 23 -21 23 -28 0 -15 37 -50 53 -50 20 0 54
-29 61 -52 5 -15 14 -22 28 -20 11 1 25 -7 32 -17 20 -35 30 -43 48 -39 10 3
22 -4 30 -16 7 -12 18 -21 25 -21 7 0 22 -9 33 -20 11 -11 20 -18 20 -15 0 3
11 -2 25 -11 14 -9 22 -21 19 -26 -4 -6 1 -8 14 -4 16 5 21 1 27 -21 6 -20 9
-23 12 -11 4 14 8 15 24 5 10 -6 19 -17 19 -24 0 -7 6 -10 14 -7 7 3 16 -2 19
-10 4 -9 12 -13 20 -10 8 3 18 -5 25 -18 6 -13 11 -17 11 -9 1 9 8 6 21 -9 11
-13 20 -18 20 -12 0 5 9 8 20 5 11 -3 20 -12 20 -20 0 -8 5 -11 11 -7 6 3 22
-6 35 -21 21 -24 24 -26 25 -9 0 14 2 15 6 4 4 -8 12 -20 19 -27 10 -11 13
-10 17 5 4 16 5 16 6 -1 1 -13 6 -17 20 -12 12 3 21 0 24 -10 4 -8 13 -12 22
-9 8 3 15 1 15 -6 0 -7 8 -9 20 -5 14 5 20 2 20 -9 0 -10 9 -16 25 -16 14 0
25 -5 25 -11 0 -6 9 -8 20 -4 14 4 22 1 26 -10 5 -12 14 -15 30 -11 16 4 24 2
24 -7 0 -8 10 -13 23 -13 13 1 21 -4 19 -12 -2 -10 5 -12 28 -7 24 5 30 3 30
-10 0 -12 5 -15 20 -10 12 4 27 1 35 -5 8 -6 19 -9 25 -5 6 4 20 -1 30 -10 11
-10 31 -18 45 -18 14 0 25 -4 25 -9 0 -6 11 -8 25 -6 16 4 29 0 34 -10 6 -11
17 -13 39 -9 21 4 34 2 39 -6 4 -7 24 -13 43 -13 24 1 34 -3 32 -12 -2 -10 9
-13 40 -10 30 2 42 -1 41 -9 -2 -9 11 -12 45 -10 32 1 46 -2 45 -10 -2 -9 13
-12 50 -10 37 1 51 -2 49 -10 -1 -7 7 -13 18 -13 11 0 20 5 20 10 0 11 47 3
65 -11 6 -4 35 -7 64 -7 29 1 56 -3 60 -10 4 -6 33 -10 74 -9 47 1 70 -2 76
-11 6 -10 26 -11 83 -6 62 5 77 4 91 -11 15 -15 32 -16 142 -9 89 5 129 3 139
-5 10 -8 105 -10 362 -6 192 3 407 5 477 5 76 0 126 3 123 9 -9 14 27 19 109
14 54 -3 75 -1 70 6 -7 12 18 16 84 12 27 -2 47 2 51 10 5 7 28 12 57 11 26 0
53 3 58 7 17 14 55 20 61 10 8 -14 54 -11 52 4 -2 8 11 12 42 11 29 -1 48 4
53 12 6 10 19 12 46 8 30 -5 39 -3 44 10 5 13 14 16 40 11 26 -5 36 -3 40 10
5 12 15 14 40 10 26 -5 36 -3 40 9 5 11 14 14 35 10 22 -4 31 -2 36 11 4 12
13 15 35 10 20 -4 30 -2 34 9 4 9 14 12 26 9 12 -3 27 2 37 11 9 10 24 14 35
11 11 -4 19 -2 19 6 0 7 10 9 30 6 23 -5 30 -3 30 9 0 12 7 14 30 9 24 -5 30
-3 30 10 0 13 6 15 30 10 23 -5 30 -3 28 7 -2 9 6 12 25 11 15 -1 25 2 22 8
-4 5 -2 9 4 9 5 0 12 -6 14 -12 4 -10 6 -10 6 0 1 6 8 12 16 12 8 0 14 6 13
12 -2 8 7 12 25 10 20 -3 27 1 27 13 0 12 6 15 20 10 12 -4 20 -2 20 5 0 7 7
10 15 6 8 -3 21 2 30 10 9 9 23 13 35 9 16 -5 19 -3 13 11 -5 14 -2 16 20 10
19 -4 26 -3 25 6 -2 8 5 12 20 10 15 -2 22 2 22 14 0 11 6 15 19 11 12 -3 22
1 25 10 4 8 13 13 20 10 8 -3 17 1 20 8 3 8 12 12 19 9 8 -3 17 2 20 10 4 9
13 13 22 10 8 -4 15 -1 15 6 0 7 7 10 15 6 9 -3 18 1 22 10 3 8 12 13 20 10 7
-3 16 1 19 9 3 7 12 11 20 8 9 -3 14 1 14 12 0 12 5 15 20 10 15 -5 20 -2 20
10 0 11 5 15 14 12 8 -3 17 1 20 10 4 8 13 13 21 9 9 -3 15 0 15 8 0 17 40 29
41 13 0 -7 5 -2 11 11 6 13 17 21 25 18 7 -3 17 4 23 15 6 11 15 17 20 14 13
-8 40 6 40 21 0 8 6 11 15 8 9 -4 15 0 15 9 0 8 7 17 15 21 8 3 15 1 15 -4 0
-6 5 -10 11 -10 5 0 7 5 4 10 -3 6 -1 10 4 10 6 0 11 7 11 16 0 8 5 12 11 9 6
-4 17 3 26 15 8 12 21 19 28 16 8 -3 21 7 30 20 10 15 22 23 31 20 8 -3 14 0
14 7 0 17 36 38 54 31 9 -3 17 3 21 18 8 23 22 38 38 38 5 0 5 -5 1 -12 -4 -7
-3 -8 4 -4 7 4 12 13 12 20 0 17 60 61 60 44 1 -7 7 -1 16 14 17 32 51 53 78
49 11 -1 16 2 12 8 -4 6 -2 11 4 11 6 0 9 4 5 9 -7 12 42 51 64 51 9 0 23 10
31 23 24 36 104 109 108 98 4 -11 42 23 58 51 12 23 293 308 303 308 10 0 49
42 51 55 3 18 65 94 81 98 8 2 25 22 36 43 11 22 34 48 51 59 17 11 31 28 32
38 0 10 13 32 29 48 17 16 33 38 36 49 4 11 17 28 31 36 13 9 24 23 24 31 0 7
11 25 24 38 14 13 27 33 31 44 3 10 14 21 24 24 10 2 18 11 18 19 0 17 63 118
74 118 4 0 9 10 13 23 3 13 17 36 31 51 14 15 25 33 25 41 0 8 4 16 9 20 6 3
20 26 33 51 12 26 28 49 35 51 7 3 13 13 13 23 0 10 7 25 15 34 8 8 15 18 15
22 0 4 11 22 25 40 14 18 25 37 25 43 0 6 11 30 25 53 13 24 41 77 62 118 20
41 41 77 45 78 4 2 8 12 8 23 0 10 3 19 8 19 7 0 20 26 40 80 30 77 74 160 84
154 6 -4 8 1 4 14 -4 11 -3 23 2 26 6 3 13 22 16 41 4 20 14 39 22 42 7 3 14
14 14 24 0 25 30 102 45 114 6 6 10 16 7 24 -3 8 3 20 13 27 10 7 15 20 12 28
-4 9 -2 18 3 21 6 4 10 18 10 32 0 17 4 23 13 20 10 -4 12 3 9 24 -2 16 0 29
6 29 5 0 12 19 16 42 4 22 10 46 14 52 12 18 32 80 32 99 0 9 6 17 14 17 9 0
12 8 9 24 -3 13 0 27 6 30 6 4 11 18 11 32 0 13 5 33 10 44 6 11 15 29 20 40
6 11 10 31 10 45 0 14 5 25 10 25 6 0 10 14 10 30 0 17 4 30 9 30 4 0 6 11 4
23 -3 13 2 31 10 39 9 9 13 25 10 41 -4 19 0 29 11 33 13 5 15 14 11 35 -5 21
-2 31 9 35 13 5 15 14 10 40 -5 26 -2 35 10 40 13 5 15 14 10 40 -5 27 -3 34
10 34 13 0 15 7 10 40 -4 27 -3 40 5 40 6 0 11 17 11 39 0 22 5 43 10 46 6 3
10 24 10 46 0 22 5 39 11 39 7 0 9 10 5 25 -8 32 3 77 16 69 7 -5 8 9 4 40 -6
37 -4 47 9 52 13 5 15 15 10 49 -5 32 -3 46 10 59 13 12 15 26 11 52 -8 39 1
77 15 69 5 -4 8 20 6 57 -1 48 1 62 11 60 11 -2 12 11 7 61 -5 43 -3 67 4 71
7 4 11 39 11 87 0 44 4 79 10 79 5 0 9 35 8 86 -2 53 2 88 9 92 7 4 10 48 10
120 -1 81 2 115 11 121 9 5 12 43 12 137 -1 71 2 610 5 1198 l6 1068 -35 -6
c-44 -8 -108 2 -100 16 4 7 -31 8 -100 4 -91 -4 -108 -3 -113 10 -5 14 -19 15
-100 9 -64 -5 -98 -3 -107 4 -8 7 -54 12 -110 12 -52 0 -98 4 -101 9 -3 6 -51
9 -107 9 -62 0 -103 4 -108 10 -4 7 -45 10 -109 9 -68 -1 -105 3 -110 10 -5 8
-41 11 -109 9 -74 -1 -105 2 -110 11 -6 9 -40 12 -121 10 -77 -1 -115 2 -120
10 -5 8 -42 11 -119 9 -84 -1 -115 1 -121 11 -6 10 -34 12 -125 8 -100 -5
-117 -4 -123 10 -5 13 -25 15 -142 12 -110 -2 -135 0 -133 11 2 11 -23 12
-141 6 -103 -5 -146 -4 -151 4 -5 7 -60 11 -167 11 -97 0 -159 4 -159 10 0 6
-69 9 -181 8 -128 -2 -182 1 -187 10 -6 8 -72 11 -235 10 -164 -2 -230 1 -235
10 -5 7 -58 11 -167 12 -88 0 -164 0 -170 -1 -29 -4 -1195 -3 -1197 1 -2 3
-43 4 -93 2z m-1172 -2325 c24 -14 60 -44 80 -66 71 -78 68 -44 67 -761 0
-356 3 -649 6 -653 4 -3 40 17 82 45 217 146 503 220 792 204 341 -19 647
-159 898 -412 179 -181 297 -386 357 -619 34 -136 39 -194 40 -467 0 -153 2
-278 5 -278 3 0 82 107 174 238 93 130 181 253 196 272 14 19 57 79 96 134 38
54 102 144 142 200 156 218 228 319 242 340 86 126 191 263 221 291 48 43 106
59 191 52 82 -7 133 -32 185 -91 80 -91 93 -221 33 -319 -17 -27 -157 -226
-313 -444 -155 -217 -295 -414 -311 -437 -31 -44 -230 -325 -278 -391 -16 -22
-50 -69 -75 -105 -26 -36 -63 -87 -83 -115 -20 -27 -137 -192 -260 -365 -123
-173 -241 -331 -261 -351 -83 -81 -223 -91 -331 -23 -41 26 -96 96 -113 142
-5 16 -12 338 -15 777 -6 681 -8 756 -24 810 -112 376 -454 624 -827 602 -280
-16 -526 -172 -665 -422 -36 -65 -79 -195 -90 -270 -5 -33 -8 -377 -9 -765 0
-793 5 -737 -77 -827 -53 -57 -106 -84 -178 -90 -114 -11 -227 56 -276 162
l-24 50 0 1882 c0 1878 0 1881 21 1930 32 76 109 145 183 164 58 15 152 4 199
-24z"/>
</g>
</svg>

